<svg width="25" height="25" viewBox="0 0 25 25" fill="none" xmlns="http://www.w3.org/2000/svg">
<path d="M14.7034 12.5034L24.5234 2.683C24.6724 2.53905 24.7913 2.36685 24.8731 2.17646C24.9549 1.98607 24.9979 1.7813 24.9997 1.57409C25.0015 1.36688 24.9621 1.16139 24.8836 0.96961C24.8051 0.777827 24.6893 0.603591 24.5427 0.457068C24.3962 0.310546 24.222 0.194672 24.0302 0.116207C23.8384 0.0377421 23.6329 -0.00174164 23.4257 5.8921e-05C23.2185 0.00185949 23.0137 0.0449087 22.8233 0.126695C22.6329 0.20848 22.4608 0.327365 22.3168 0.476412L12.4964 10.2964L2.67637 0.476412C2.38264 0.189138 1.98748 0.0292867 1.57663 0.0315493C1.16578 0.0338119 0.772403 0.198005 0.481861 0.488497C0.191318 0.778988 0.0270558 1.17234 0.0247206 1.58319C0.0223853 1.99403 0.182166 2.38922 0.469388 2.683L10.2898 12.5034L0.469388 22.3238C0.321829 22.4681 0.204365 22.6403 0.123798 22.8303C0.0432305 23.0204 0.00116034 23.2245 2.36661e-05 23.4309C-0.00111301 23.6373 0.0387064 23.8418 0.117176 24.0327C0.195645 24.2237 0.311205 24.3971 0.457166 24.543C0.603126 24.689 0.776587 24.8045 0.967504 24.8829C1.15842 24.9614 1.363 25.0012 1.5694 25C1.7758 24.9988 1.97991 24.9567 2.16992 24.8761C2.35994 24.7955 2.53207 24.678 2.67637 24.5304L12.4964 14.7104L22.3168 24.5304C22.6215 24.8351 23.021 24.9876 23.4201 24.9876C23.8192 24.9876 24.2191 24.8351 24.5234 24.5304C24.8159 24.2378 24.9803 23.8409 24.9803 23.4271C24.9803 23.0133 24.8159 22.6165 24.5234 22.3238L14.7034 12.5034Z" fill="white"/>
</svg>
