<svg width="25" height="32" viewBox="0 0 25 32" fill="none" xmlns="http://www.w3.org/2000/svg">
<path d="M22.7207 11.3732L22.2078 26.8951C22.1642 28.2244 21.6042 29.4844 20.6467 30.4077C19.6892 31.3309 18.4097 31.8447 17.0796 31.84H7.33595C6.00674 31.8447 4.72792 31.3317 3.7706 30.4095C2.81327 29.4874 2.25269 28.2287 2.20771 26.9002L1.69488 11.3732C1.68366 11.0331 1.80798 10.7026 2.04047 10.4542C2.27297 10.2059 2.59461 10.06 2.93464 10.0488C3.27466 10.0376 3.60521 10.1619 3.85358 10.3944C4.10195 10.6269 4.24778 10.9485 4.259 11.2885L4.77183 26.8143C4.79736 27.4771 5.07874 28.1042 5.55687 28.5639C6.035 29.0236 6.67266 29.2802 7.33595 29.2797H17.0796C17.7437 29.2801 18.3821 29.0229 18.8604 28.5621C19.3387 28.1013 19.6195 27.4729 19.6437 26.8092L20.1565 11.2885C20.1678 10.9485 20.3136 10.6269 20.562 10.3944C20.8103 10.1619 21.1409 10.0376 21.4809 10.0488C21.8209 10.06 22.1426 10.2059 22.3751 10.4542C22.6076 10.7026 22.7319 11.0331 22.7207 11.3732ZM24.4168 6.20775C24.4168 6.54777 24.2818 6.87387 24.0413 7.1143C23.8009 7.35473 23.4748 7.48981 23.1348 7.48981H1.28206C0.942037 7.48981 0.615939 7.35473 0.375506 7.1143C0.135073 6.87387 0 6.54777 0 6.20775C0 5.86772 0.135073 5.54163 0.375506 5.30119C0.615939 5.06076 0.942037 4.92569 1.28206 4.92569H5.25645C5.66266 4.92678 6.05476 4.7767 6.35643 4.50465C6.6581 4.23261 6.84776 3.85805 6.88851 3.45388C6.98312 2.50578 7.42731 1.62686 8.13454 0.988362C8.84176 0.349867 9.76137 -0.0024658 10.7142 1.2991e-05H13.7014C14.6542 -0.0024658 15.5738 0.349867 16.281 0.988362C16.9882 1.62686 17.4324 2.50578 17.527 3.45388C17.5678 3.85805 17.7575 4.23261 18.0591 4.50465C18.3608 4.7767 18.7529 4.92678 19.1591 4.92569H23.1335C23.4735 4.92569 23.7996 5.06076 24.04 5.30119C24.2805 5.54163 24.4156 5.86772 24.4156 6.20775H24.4168ZM9.11416 4.92569H15.304C15.1355 4.54074 15.0253 4.13284 14.977 3.71542C14.9453 3.39941 14.7973 3.10643 14.5619 2.89325C14.3265 2.68008 14.0203 2.56188 13.7027 2.56157H10.7155C10.3978 2.56188 10.0917 2.68008 9.85622 2.89325C9.62078 3.10643 9.47285 3.39941 9.44109 3.71542C9.39241 4.13291 9.28308 4.54081 9.11416 4.92569ZM10.4052 24.3502V13.4334C10.4052 13.0934 10.2701 12.7673 10.0297 12.5269C9.78926 12.2864 9.46316 12.1514 9.12314 12.1514C8.78312 12.1514 8.45702 12.2864 8.21659 12.5269C7.97615 12.7673 7.84108 13.0934 7.84108 13.4334V24.3553C7.84108 24.6953 7.97615 25.0214 8.21659 25.2619C8.45702 25.5023 8.78312 25.6374 9.12314 25.6374C9.46316 25.6374 9.78926 25.5023 10.0297 25.2619C10.2701 25.0214 10.4052 24.6953 10.4052 24.3553V24.3502ZM16.577 24.3502V13.4334C16.577 13.0934 16.442 12.7673 16.2015 12.5269C15.9611 12.2864 15.635 12.1514 15.295 12.1514C14.955 12.1514 14.6289 12.2864 14.3884 12.5269C14.148 12.7673 14.0129 13.0934 14.0129 13.4334V24.3553C14.0129 24.6953 14.148 25.0214 14.3884 25.2619C14.6289 25.5023 14.955 25.6374 15.295 25.6374C15.635 25.6374 15.9611 25.5023 16.2015 25.2619C16.442 25.0214 16.577 24.6953 16.577 24.3553V24.3502Z" fill="#FF00A2"/>
</svg>
