<svg width="14" height="14" viewBox="0 0 14 14" fill="none" xmlns="http://www.w3.org/2000/svg">
<path d="M11.0033 0.239792C10.8497 0.0862532 10.6414 0 10.4242 0C10.2071 0 9.99878 0.0862532 9.84519 0.239792L8.68713 1.39868L12.1613 4.87287L13.3194 3.71481C13.4729 3.56122 13.5592 3.35294 13.5592 3.13577C13.5592 2.9186 13.4729 2.71033 13.3194 2.55674L11.0033 0.239792ZM11.0033 6.03176L7.52824 2.55674L0.239148 9.84584C0.086046 9.99933 4.60588e-05 10.2073 0 10.4241V12.741C0 12.9582 0.0862873 13.1665 0.23988 13.3201C0.393472 13.4737 0.601787 13.56 0.818999 13.56H3.13513C3.35232 13.56 3.56061 13.4736 3.71416 13.32L11.0033 6.03094V6.03176Z" fill="white"/>
</svg>
