<svg width="141" height="137" viewBox="0 0 141 137" fill="none" xmlns="http://www.w3.org/2000/svg">
<path d="M16.958 94.588C14.762 94.588 12.7287 93.9373 10.858 92.636C8.906 91.3347 7.93 90.2367 7.93 89.342C7.93 89.0167 8.13333 88.854 8.54 88.854C8.784 88.854 9.06867 89.098 9.394 89.586C9.71933 90.074 10.126 90.4807 10.614 90.806C12.2407 91.9447 13.664 92.514 14.884 92.514C15.372 92.514 15.9413 92.4327 16.592 92.27C20.74 91.4567 24.766 86.2513 28.67 76.654C30.2967 72.75 31.7607 68.48 33.062 63.844C34.4447 59.208 35.7053 54.1247 36.844 48.594C36.0307 48.6753 35.2173 48.7567 34.404 48.838C33.5907 48.9193 32.7773 49.0413 31.964 49.204C29.8493 58.8013 27.2873 67.016 24.278 73.848C20.374 82.9573 15.3313 87.512 9.15 87.512C6.54733 87.512 4.35133 86.5767 2.562 84.706C0.854 82.754 0 80.2327 0 77.142C0 73.0753 1.54533 68.7647 4.636 64.21C7.15733 60.4687 11.4273 56.9307 17.446 53.596C7.84867 50.3427 3.05 46.2353 3.05 41.274C3.05 37.37 5.89667 34.0353 11.59 31.27C17.446 28.2607 25.132 26.634 34.648 26.39L35.014 20.412C35.1767 20.168 35.3393 20.046 35.502 20.046C35.9087 20.046 36.0713 20.2087 35.99 20.534L35.624 26.39H40.992C42.456 24.682 43.6353 23.828 44.53 23.828C45.262 23.828 45.7093 24.6413 45.872 26.268C47.2547 26.4307 47.946 26.878 47.946 27.61C47.946 28.586 47.0513 29.074 45.262 29.074C44.8553 32.1647 44.3267 35.2553 43.676 38.346C43.1067 41.4367 42.4967 44.5273 41.846 47.618C44.3673 47.7807 46.5633 48.0653 48.434 48.472C52.094 41.0707 55.5507 35.4993 58.804 31.758C63.684 26.0647 69.174 22.852 75.274 22.12C75.5993 22.0387 75.884 21.998 76.128 21.998C76.372 21.998 76.6567 21.998 76.982 21.998C80.8047 21.998 84.0987 23.34 86.864 26.024C89.7107 28.6267 91.3373 31.9207 91.744 35.906C91.9067 37.0447 91.866 37.6547 91.622 37.736C91.378 37.736 91.2153 37.248 91.134 36.272C90.8087 32.7747 89.182 29.9687 86.254 27.854C83.7327 26.0647 80.642 25.17 76.982 25.17C73.6473 25.17 70.4753 26.0647 67.466 27.854C62.0167 31.1073 56.2013 38.102 50.02 48.838C54.7373 50.1393 58.3973 52.2133 61 55.06C63.6027 57.8253 64.904 60.8347 64.904 64.088C64.904 69.7 61.6913 74.0107 55.266 77.02C59.7393 82.7133 63.196 86.3733 65.636 88C68.564 89.952 71.004 90.928 72.956 90.928C76.0467 90.928 77.592 88.8947 77.592 84.828C77.592 81.168 76.4533 77.7113 74.176 74.458C74.0133 74.2953 73.932 74.1327 73.932 73.97C73.932 73.8073 74.0133 73.726 74.176 73.726C74.3387 73.726 74.6233 73.9293 75.03 74.336C77.714 77.4267 79.056 80.802 79.056 84.462C79.056 87.0647 78.2427 89.2607 76.616 91.05C75.0707 92.8393 72.9967 93.734 70.394 93.734C66.6527 93.734 62.708 91.904 58.56 88.244C57.1773 87.024 55.7947 85.6413 54.412 84.096C53.0293 82.4693 51.6873 80.6393 50.386 78.606C49.2473 78.7687 48.1087 78.85 46.97 78.85C43.7167 78.85 40.7887 78.0367 38.186 76.41C37.942 76.3287 37.9013 76.0847 38.064 75.678C38.1453 75.434 38.3893 75.3933 38.796 75.556C41.1547 77.1013 43.8387 77.874 46.848 77.874C47.824 77.874 48.8 77.7927 49.776 77.63C48.6373 75.3527 47.214 72.5873 45.506 69.334L39.284 57.866C33.8347 77.9553 27.4907 89.952 20.252 93.856C19.1133 94.344 18.0153 94.588 16.958 94.588ZM18.91 52.742C22.9767 50.6273 27.0433 49.1633 31.11 48.35C32.4113 42.006 33.4687 35.5807 34.282 29.074C25.8233 29.318 19.0727 30.8633 14.03 33.71C9.638 36.3127 7.442 39.322 7.442 42.738C7.442 47.618 11.2647 50.9527 18.91 52.742ZM32.208 48.106C32.8587 47.9433 33.672 47.8213 34.648 47.74L36.966 47.618C37.7793 43.714 38.3487 40.2573 38.674 37.248C39.0807 34.1573 39.3247 31.4733 39.406 29.196C38.7553 29.1147 38.064 29.074 37.332 29.074H35.258C34.8513 32.3273 34.404 35.54 33.916 38.712C33.428 41.884 32.8587 45.0153 32.208 48.106ZM42.7 60.184L48.068 49.326C47.0107 49.1633 45.9533 49.0007 44.896 48.838C43.8387 48.6753 42.7407 48.5533 41.602 48.472L40.748 52.254C40.504 53.474 40.2193 54.6533 39.894 55.792L41.236 57.866C41.3987 58.1913 41.602 58.5573 41.846 58.964C42.09 59.3707 42.3747 59.7773 42.7 60.184ZM10.126 85.56C15.4127 85.56 19.8453 81.534 23.424 73.482C24.888 70.066 26.23 66.3653 27.45 62.38C28.67 58.3947 29.8087 54.084 30.866 49.448C27.2873 50.18 23.8713 51.4 20.618 53.108L21.106 53.23C21.35 53.3927 21.472 53.5147 21.472 53.596C21.472 53.84 21.2687 54.0433 20.862 54.206C20.5367 54.3687 20.1707 54.4093 19.764 54.328L18.91 54.084C13.2167 57.256 9.028 60.8347 6.344 64.82C3.66 68.8053 2.318 72.628 2.318 76.288C2.318 79.0533 3.05 81.29 4.514 82.998C6.05933 84.706 7.93 85.56 10.126 85.56ZM54.534 76.044C60.3087 73.116 63.196 69.0493 63.196 63.844C63.196 60.7533 62.0573 58.0287 59.78 55.67C57.34 52.9047 53.8833 50.912 49.41 49.692C48.1087 52.4573 46.0753 56.1987 43.31 60.916C43.8793 61.7293 44.53 62.6647 45.262 63.722C46.0753 64.698 46.9293 65.796 47.824 67.016L54.534 76.044Z" fill="#F0D7FF"/>
<path d="M80.9844 45.4561L79.9443 50.9639C79.8369 51.4863 79.7832 51.9258 79.7832 52.2822C79.7832 52.3604 79.8491 52.4312 79.981 52.4946C80.1128 52.5581 80.2422 52.5996 80.3691 52.6191L80.5742 52.6484C80.5938 52.6484 80.6035 52.668 80.6035 52.707C80.6035 52.8145 80.5742 52.9268 80.5156 53.0439C80.0664 53.0195 79.7148 53.0024 79.4609 52.9927C79.207 52.978 79.0508 52.9707 78.9922 52.9707C78.9824 52.9707 78.8433 52.978 78.5747 52.9927C78.3062 53.0024 77.9082 53.0195 77.3809 53.0439C77.3613 53.0244 77.3516 52.9854 77.3516 52.9268C77.3516 52.7412 77.3857 52.6484 77.4541 52.6484C77.5322 52.6484 77.6396 52.6338 77.7764 52.6045C77.918 52.5752 78.0498 52.5361 78.1719 52.4873C78.2939 52.4385 78.3672 52.3848 78.3916 52.3262C78.5332 52.0039 78.6602 51.5352 78.7725 50.9199L79.8125 45.5C79.9199 44.9775 79.9736 44.5283 79.9736 44.1523C79.9736 44.0791 79.9224 44.0132 79.8198 43.9546C79.7222 43.896 79.6074 43.8496 79.4756 43.8154C79.3486 43.7764 79.2412 43.7568 79.1533 43.7568C79.1338 43.7568 79.124 43.7324 79.124 43.6836C79.124 43.5469 79.1631 43.4395 79.2412 43.3613C79.3193 43.3662 79.4512 43.376 79.6367 43.3906C79.8271 43.4053 80.0322 43.4199 80.252 43.4346C80.4717 43.4443 80.6621 43.4492 80.8232 43.4492C81.0576 43.4492 81.3579 43.4346 81.7241 43.4053C82.0903 43.376 82.3076 43.3613 82.376 43.3613V43.4053C82.376 43.6396 82.3418 43.7568 82.2734 43.7568C82.2246 43.7568 82.1294 43.7764 81.9878 43.8154C81.8511 43.8496 81.7168 43.8936 81.585 43.9473C81.458 43.9961 81.3848 44.0449 81.3652 44.0938C81.2334 44.3818 81.1064 44.8359 80.9844 45.4561ZM80.4717 48.2246C80.7744 48.0391 81.1479 47.751 81.5923 47.3604C82.0366 46.9697 82.5078 46.5254 83.0059 46.0273C83.5088 45.5293 83.9873 45.0312 84.4414 44.5332C84.4902 44.4844 84.5757 44.3916 84.6978 44.2549C84.8198 44.1133 84.8809 44.0107 84.8809 43.9473C84.8809 43.8594 84.7954 43.7959 84.6245 43.7568C84.4536 43.7178 84.3047 43.6982 84.1777 43.6982C84.1484 43.6982 84.1338 43.6689 84.1338 43.6104C84.1338 43.5225 84.1582 43.4395 84.207 43.3613C84.3242 43.3711 84.478 43.3833 84.6685 43.3979C84.8589 43.4126 85.0444 43.4248 85.2251 43.4346C85.4106 43.4443 85.5498 43.4492 85.6426 43.4492C85.8818 43.4492 86.187 43.4346 86.5581 43.4053C86.9341 43.376 87.1514 43.3613 87.21 43.3613C87.21 43.5859 87.1807 43.6982 87.1221 43.6982C86.4336 43.7812 85.916 43.9961 85.5693 44.3428L81.9951 47.917C81.9463 47.9658 81.9219 48.0244 81.9219 48.0928C81.9219 48.166 81.9512 48.2441 82.0098 48.3271L84.998 51.9453C85.1104 52.082 85.269 52.1992 85.4741 52.2969C85.6841 52.3896 85.8916 52.4629 86.0967 52.5166C86.3018 52.5654 86.4482 52.5898 86.5361 52.5898C86.5557 52.5898 86.5654 52.6191 86.5654 52.6777C86.5654 52.79 86.541 52.8926 86.4922 52.9854C85.9941 53.0146 85.6279 53.0293 85.3936 53.0293C85.0908 53.0293 84.8003 52.9805 84.522 52.8828C84.3022 52.7998 84.1265 52.7144 83.9946 52.6265C83.8677 52.5386 83.7676 52.4482 83.6943 52.3555C82.7227 51.1201 81.9683 50.1582 81.4312 49.4697C80.894 48.7812 80.5742 48.3662 80.4717 48.2246ZM92.791 49.499C92.791 49.4404 92.73 49.4038 92.6079 49.3892C92.4858 49.3745 92.3027 49.3647 92.0586 49.3599C91.8193 49.355 91.5703 49.3525 91.3115 49.3525C91.209 49.3525 91.043 49.3599 90.8135 49.3745C90.5889 49.3843 90.3008 49.4014 89.9492 49.4258C89.9199 49.4258 89.7881 49.6211 89.5537 50.0117C89.3975 50.2705 89.2388 50.5513 89.0776 50.854C88.9214 51.1567 88.7896 51.4326 88.6821 51.6816C88.5796 51.9258 88.5283 52.0967 88.5283 52.1943C88.5283 52.292 88.5796 52.375 88.6821 52.4434C88.7896 52.5117 88.9067 52.563 89.0337 52.5972C89.1655 52.6313 89.2656 52.6484 89.334 52.6484C89.3535 52.6484 89.3633 52.6777 89.3633 52.7363C89.3633 52.8486 89.3389 52.9512 89.29 53.0439C88.8359 53.0195 88.4917 53.0024 88.2573 52.9927C88.0278 52.978 87.9082 52.9707 87.8984 52.9707C87.8105 52.9707 87.6665 52.9756 87.4663 52.9854C87.2661 52.9951 87.0684 53.0049 86.873 53.0146C86.6777 53.0293 86.541 53.0391 86.4629 53.0439C86.4434 53.0244 86.4336 52.9854 86.4336 52.9268C86.4336 52.7412 86.4678 52.6484 86.5361 52.6484C86.6436 52.6484 86.7925 52.6191 86.9829 52.5605C87.1733 52.502 87.3076 52.4287 87.3857 52.3408C87.6006 52.1016 87.8984 51.6426 88.2793 50.9639L92.3223 43.6982C92.4688 43.4346 92.6592 43.3027 92.8936 43.3027C92.9375 43.3027 92.9766 43.3125 93.0107 43.332L94.2266 51.0664C94.3242 51.6816 94.3828 52.0332 94.4023 52.1211C94.4219 52.2188 94.4878 52.3091 94.6001 52.3921C94.7124 52.4702 94.832 52.5337 94.959 52.5825C95.0908 52.6265 95.1885 52.6484 95.252 52.6484C95.2715 52.6484 95.2812 52.6729 95.2812 52.7217C95.2812 52.8438 95.2568 52.9512 95.208 53.0439C94.7539 53.0195 94.3999 53.0024 94.146 52.9927C93.8921 52.978 93.7383 52.9707 93.6846 52.9707C93.5918 52.9707 93.5015 52.9731 93.4136 52.978C93.3306 52.978 93.2476 52.9805 93.1646 52.9854C93.0132 52.9951 92.835 53.0049 92.6299 53.0146C92.4297 53.0244 92.2588 53.0342 92.1172 53.0439C92.1074 53.0342 92.1025 53.0049 92.1025 52.9561C92.1025 52.751 92.1367 52.6484 92.2051 52.6484C92.3027 52.6484 92.4395 52.6191 92.6152 52.5605C92.791 52.502 92.9033 52.4336 92.9521 52.3555C93.0205 52.2041 93.0547 51.9746 93.0547 51.667C93.0547 51.501 92.9668 50.7783 92.791 49.499ZM91.502 48.6348C91.7266 48.6348 91.9292 48.6323 92.1099 48.6274C92.2954 48.6226 92.459 48.6152 92.6006 48.6055C92.6396 48.6055 92.6592 48.5859 92.6592 48.5469C92.6592 48.4834 92.6274 48.2539 92.564 47.8584C92.5249 47.585 92.4785 47.2749 92.4248 46.9282C92.3711 46.5815 92.3198 46.2568 92.271 45.9541C92.2271 45.6514 92.1953 45.4316 92.1758 45.2949C90.9746 47.4678 90.374 48.5664 90.374 48.5908C90.374 48.6104 90.3789 48.6201 90.3887 48.6201C90.501 48.625 90.6499 48.6299 90.8354 48.6348C91.021 48.6348 91.2432 48.6348 91.502 48.6348ZM101.067 43.3613C101.448 43.3613 101.829 43.459 102.21 43.6543C102.596 43.8447 102.916 44.1108 103.169 44.4526C103.428 44.7896 103.558 45.1777 103.558 45.6172C103.558 46.0371 103.465 46.4326 103.279 46.8037C103.094 47.1699 102.842 47.4946 102.525 47.7778C102.208 48.061 101.851 48.2832 101.456 48.4443C101.065 48.6006 100.662 48.6787 100.247 48.6787C99.7979 48.6787 99.4561 48.6348 99.2217 48.5469C99.2021 48.4883 99.1924 48.4395 99.1924 48.4004C99.1924 48.3027 99.2217 48.2246 99.2803 48.166C99.4023 48.1855 99.5195 48.1953 99.6318 48.1953C100.076 48.1953 100.501 48.0854 100.906 47.8657C101.316 47.646 101.653 47.3311 101.917 46.9209C102.181 46.5059 102.312 46.0127 102.312 45.4414C102.312 44.416 101.785 43.9033 100.73 43.9033C100.276 43.9033 99.9712 43.9253 99.8149 43.9692C99.6636 44.0132 99.5781 44.0889 99.5586 44.1963L98.1963 51.125C98.1084 51.5645 98.0645 51.9502 98.0645 52.2822C98.0645 52.3604 98.1426 52.4312 98.2988 52.4946C98.4551 52.5581 98.6113 52.5996 98.7676 52.6191L99.0166 52.6484C99.0361 52.6484 99.0459 52.6875 99.0459 52.7656C99.0459 52.8926 99.0166 52.9854 98.958 53.0439C98.5039 53.0195 98.1523 53.0024 97.9033 52.9927C97.6543 52.978 97.5078 52.9707 97.4639 52.9707C97.4492 52.9707 97.2905 52.978 96.9878 52.9927C96.6899 53.0024 96.248 53.0195 95.6621 53.0439C95.6426 53.0244 95.6328 52.9854 95.6328 52.9268C95.6328 52.7412 95.667 52.6484 95.7354 52.6484C95.8086 52.6484 95.9136 52.6338 96.0503 52.6045C96.187 52.5703 96.3188 52.5288 96.4458 52.48C96.5728 52.4263 96.6484 52.375 96.6729 52.3262C96.7754 52.1113 96.9023 51.6426 97.0537 50.9199L98.2549 44.8848C98.3037 44.6553 98.3281 44.4014 98.3281 44.123C98.3281 44.0059 98.2329 43.9155 98.0425 43.8521C97.8521 43.7886 97.6885 43.7568 97.5518 43.7568C97.5322 43.7568 97.5225 43.7227 97.5225 43.6543C97.5225 43.5127 97.5566 43.415 97.625 43.3613C98.0449 43.3906 98.5527 43.4053 99.1484 43.4053C99.4219 43.4053 99.7441 43.3979 100.115 43.3833C100.491 43.3687 100.809 43.3613 101.067 43.3613ZM106.854 50.9199L107.864 45.7197C107.991 45.0312 108.055 44.5576 108.055 44.2988C108.055 44.2354 108.042 44.1841 108.018 44.145C107.984 44.1011 107.825 44.0645 107.542 44.0352C107.259 44.0059 106.946 43.9912 106.604 43.9912C106.263 43.9912 105.989 44.0254 105.784 44.0938C105.584 44.1572 105.413 44.2817 105.271 44.4673C105.135 44.6528 104.983 44.9287 104.817 45.2949C104.798 45.3438 104.749 45.3682 104.671 45.3682C104.544 45.3682 104.446 45.334 104.378 45.2656L105.022 43.1709C105.389 43.2783 105.696 43.332 105.945 43.332C106.229 43.332 106.546 43.3394 106.897 43.354C107.249 43.3687 107.601 43.3833 107.952 43.3979C108.309 43.4126 108.626 43.4199 108.904 43.4199C109.192 43.4199 109.515 43.4126 109.871 43.3979C110.232 43.3833 110.591 43.3687 110.948 43.354C111.309 43.3394 111.634 43.332 111.922 43.332C112.142 43.332 112.464 43.2783 112.889 43.1709L112.742 45.2656C112.649 45.334 112.537 45.3682 112.405 45.3682C112.317 45.3682 112.273 45.3438 112.273 45.2949C112.273 44.7676 112.178 44.4185 111.988 44.2476C111.797 44.0767 111.473 43.9912 111.014 43.9912C110.047 43.9912 109.529 44.0645 109.461 44.2109C109.393 44.3574 109.324 44.5527 109.256 44.7969C109.188 45.041 109.119 45.334 109.051 45.6758L108.025 50.9639C107.918 51.4863 107.864 51.9258 107.864 52.2822C107.864 52.3604 107.93 52.4312 108.062 52.4946C108.194 52.5581 108.323 52.5996 108.45 52.6191L108.655 52.6484C108.675 52.6484 108.685 52.668 108.685 52.707C108.685 52.8145 108.655 52.9268 108.597 53.0439C108.147 53.0195 107.796 53.0024 107.542 52.9927C107.288 52.978 107.132 52.9707 107.073 52.9707C107.063 52.9707 106.924 52.978 106.656 52.9927C106.387 53.0024 105.989 53.0195 105.462 53.0439C105.442 53.0244 105.433 52.9854 105.433 52.9268C105.433 52.7412 105.467 52.6484 105.535 52.6484C105.613 52.6484 105.721 52.6338 105.857 52.6045C105.999 52.5752 106.131 52.5361 106.253 52.4873C106.375 52.4385 106.448 52.3848 106.473 52.3262C106.614 52.0039 106.741 51.5352 106.854 50.9199ZM113.445 48.4297L114.017 45.5C114.124 44.958 114.178 44.5088 114.178 44.1523C114.178 44.0791 114.126 44.0132 114.024 43.9546C113.926 43.896 113.812 43.8496 113.68 43.8154C113.553 43.7764 113.445 43.7568 113.357 43.7568C113.338 43.7568 113.328 43.7324 113.328 43.6836C113.328 43.5469 113.367 43.4395 113.445 43.3613C113.523 43.3662 113.655 43.376 113.841 43.3906C114.031 43.4053 114.236 43.4199 114.456 43.4346C114.676 43.4443 114.866 43.4492 115.027 43.4492C115.262 43.4492 115.562 43.4346 115.928 43.4053C116.294 43.376 116.512 43.3613 116.58 43.3613V43.4053C116.58 43.6396 116.546 43.7568 116.478 43.7568C116.429 43.7568 116.333 43.7764 116.192 43.8154C116.055 43.8496 115.921 43.8936 115.789 43.9473C115.662 43.9961 115.589 44.0449 115.569 44.0938C115.438 44.3818 115.311 44.8359 115.188 45.4561L114.588 48.6348C114.51 49.0547 114.471 49.4697 114.471 49.8799C114.471 50.6318 114.632 51.2202 114.954 51.645C115.276 52.0698 115.755 52.2822 116.39 52.2822C117.981 52.2822 118.982 51.1836 119.393 48.9863L120.037 45.5C120.154 44.8164 120.213 44.377 120.213 44.1816C120.213 44.1035 120.145 44.0327 120.008 43.9692C119.871 43.9058 119.715 43.8545 119.539 43.8154C119.368 43.7764 119.227 43.7568 119.114 43.7568C119.095 43.7568 119.085 43.7275 119.085 43.6689C119.085 43.5176 119.119 43.415 119.188 43.3613C119.266 43.3662 119.4 43.376 119.59 43.3906C119.786 43.4053 119.991 43.4199 120.206 43.4346C120.425 43.4443 120.613 43.4492 120.77 43.4492C120.862 43.4492 120.953 43.4492 121.041 43.4492C121.133 43.4443 121.221 43.4395 121.304 43.4346C121.475 43.4248 121.658 43.4126 121.854 43.3979C122.049 43.3833 122.21 43.3711 122.337 43.3613C122.337 43.625 122.303 43.7568 122.234 43.7568C122.186 43.7568 122.078 43.7764 121.912 43.8154C121.746 43.8496 121.583 43.8936 121.421 43.9473C121.265 43.9961 121.17 44.0449 121.136 44.0938C121.058 44.1865 120.926 44.665 120.74 45.5293L120.081 48.957C119.881 49.9922 119.607 50.8052 119.261 51.396C118.919 51.9819 118.477 52.397 117.935 52.6411C117.398 52.8804 116.731 53 115.936 53C115.086 53 114.424 52.7412 113.951 52.2236C113.477 51.7061 113.24 50.959 113.24 49.9824C113.24 49.6113 113.309 49.0938 113.445 48.4297ZM126.409 43.3613C126.683 43.3613 126.961 43.3931 127.244 43.4565C127.527 43.52 127.808 43.6226 128.086 43.7642C128.365 43.9058 128.592 44.1133 128.768 44.3867C128.943 44.6602 129.031 44.9824 129.031 45.3535C129.031 45.6562 128.965 45.9541 128.833 46.2471C128.702 46.54 128.545 46.7866 128.365 46.9868C128.169 47.1968 127.959 47.3872 127.735 47.5581C127.496 47.7388 127.293 47.8755 127.127 47.9683C126.961 48.061 126.81 48.1416 126.673 48.21C126.585 48.2393 126.561 48.2979 126.6 48.3857C126.727 48.8154 126.878 49.2598 127.054 49.7188C127.229 50.1777 127.41 50.6025 127.596 50.9932C127.781 51.3789 127.947 51.6865 128.094 51.916C128.177 52.0527 128.272 52.1748 128.379 52.2822C128.487 52.3848 128.592 52.4531 128.694 52.4873C128.724 52.4971 128.748 52.5068 128.768 52.5166C128.792 52.5215 128.812 52.5288 128.826 52.5386C128.851 52.5483 128.897 52.5581 128.965 52.5679C129.009 52.5728 129.078 52.5752 129.17 52.5752C129.268 52.5752 129.329 52.5752 129.354 52.5752C129.422 52.7607 129.427 52.8975 129.368 52.9854C129.139 53.0342 128.855 53.0586 128.519 53.0586C127.869 53.0586 127.337 52.7412 126.922 52.1064C126.712 51.7891 126.487 51.3423 126.248 50.7661C126.009 50.1899 125.755 49.4844 125.486 48.6494C125.438 48.5127 125.223 48.4443 124.842 48.4443C124.539 48.4443 124.339 48.4565 124.241 48.481C124.158 48.5005 124.104 48.5713 124.08 48.6934L123.655 50.9639C123.548 51.4863 123.494 51.9258 123.494 52.2822C123.494 52.3604 123.56 52.4312 123.692 52.4946C123.824 52.5581 123.953 52.5996 124.08 52.6191L124.285 52.6484C124.305 52.6484 124.314 52.668 124.314 52.707C124.314 52.8145 124.285 52.9268 124.227 53.0439C123.772 53.0195 123.418 53.0024 123.165 52.9927C122.911 52.978 122.757 52.9707 122.703 52.9707C122.688 52.9707 122.547 52.978 122.278 52.9927C122.01 53.0024 121.614 53.0195 121.092 53.0439C121.072 53.0244 121.062 52.9854 121.062 52.9268C121.062 52.7412 121.097 52.6484 121.165 52.6484C121.243 52.6484 121.351 52.6338 121.487 52.6045C121.629 52.5752 121.761 52.5361 121.883 52.4873C122.005 52.4385 122.078 52.3848 122.103 52.3262C122.205 52.0771 122.332 51.6084 122.483 50.9199L123.685 44.8555C123.733 44.6113 123.758 44.3672 123.758 44.123C123.758 44.0059 123.66 43.9155 123.465 43.8521C123.27 43.7886 123.108 43.7568 122.981 43.7568C122.962 43.7568 122.952 43.7227 122.952 43.6543C122.952 43.5127 122.986 43.415 123.055 43.3613C123.475 43.3906 123.982 43.4053 124.578 43.4053C124.852 43.4053 125.157 43.3979 125.494 43.3833C125.831 43.3687 126.136 43.3613 126.409 43.3613ZM126.175 43.9033C125.677 43.9033 125.362 43.918 125.23 43.9473C125.103 43.9766 125.027 44.0547 125.003 44.1816L124.3 47.5947V47.624C124.3 47.7705 124.529 47.8438 124.988 47.8438C125.433 47.8438 125.862 47.7583 126.277 47.5874C126.688 47.4165 127.042 47.1284 127.339 46.7231C127.637 46.3179 127.786 45.8369 127.786 45.2803C127.786 44.3623 127.249 43.9033 126.175 43.9033ZM133.235 43.3906C133.436 43.3906 133.707 43.3857 134.048 43.376C134.395 43.3662 134.812 43.3516 135.301 43.332C135.789 43.3125 136.219 43.2979 136.59 43.2881C136.961 43.2783 137.273 43.2734 137.527 43.2734C137.522 43.3418 137.518 43.4248 137.513 43.5225C137.513 43.6152 137.513 43.7227 137.513 43.8447C137.513 43.9277 137.513 44.0303 137.513 44.1523C137.518 44.2695 137.522 44.4062 137.527 44.5625C137.532 44.7188 137.535 44.8555 137.535 44.9727C137.54 45.0898 137.542 45.1875 137.542 45.2656C137.493 45.3145 137.405 45.3389 137.278 45.3389C137.161 45.3389 137.103 45.3047 137.103 45.2363C137.073 44.6895 136.946 44.3428 136.722 44.1963C136.497 44.0498 136.141 43.9766 135.652 43.9766H134.861C134.173 43.9766 133.802 44.04 133.748 44.167C133.641 44.46 133.553 44.7871 133.484 45.1484L133.016 47.7119C133.016 47.7705 133.074 47.8047 133.191 47.8145C133.309 47.8242 133.431 47.8291 133.558 47.8291H134.217C134.539 47.8291 134.793 47.8218 134.979 47.8071C135.164 47.7925 135.311 47.7534 135.418 47.6899C135.525 47.6265 135.618 47.5239 135.696 47.3823C135.779 47.2407 135.877 47.043 135.989 46.7891C136.019 46.7207 136.087 46.6865 136.194 46.6865C136.312 46.6865 136.385 46.7109 136.414 46.7598L135.872 49.5723C135.809 49.6113 135.74 49.6309 135.667 49.6309C135.535 49.6309 135.467 49.5918 135.462 49.5137C135.457 49.2646 135.438 49.0669 135.403 48.9204C135.384 48.8276 135.367 48.7617 135.352 48.7227C135.337 48.6836 135.301 48.6396 135.242 48.5908C135.149 48.5127 134.676 48.4736 133.821 48.4736C133.182 48.4736 132.85 48.5176 132.825 48.6055L132.4 50.7734C132.293 51.2812 132.239 51.7061 132.239 52.0479C132.239 52.1943 132.278 52.2822 132.356 52.3115C132.439 52.3408 132.698 52.3555 133.133 52.3555H133.792C134.646 52.3555 135.237 52.2725 135.564 52.1064C135.721 52.0283 135.904 51.855 136.114 51.5864C136.324 51.3179 136.521 50.998 136.707 50.627C136.736 50.5684 136.81 50.5391 136.927 50.5391C137.098 50.5391 137.2 50.5684 137.234 50.627C136.551 51.9014 136.15 52.7119 136.033 53.0586C135.521 53.0586 134.717 53.0439 133.624 53.0146C132.535 52.9854 131.795 52.9707 131.404 52.9707L129.778 53.0439C129.769 53.0342 129.764 52.9951 129.764 52.9268C129.764 52.7412 129.788 52.6484 129.837 52.6484C129.91 52.6484 130.02 52.6313 130.167 52.5972C130.313 52.5581 130.452 52.5117 130.584 52.458C130.716 52.3994 130.794 52.3408 130.818 52.2822C130.955 52.0039 131.082 51.5498 131.199 50.9199L132.254 45.4707C132.381 44.7578 132.435 44.3037 132.415 44.1084C132.41 44.0547 132.354 44.001 132.247 43.9473C132.139 43.8936 132.022 43.8496 131.895 43.8154C131.768 43.7764 131.668 43.7568 131.595 43.7568C131.575 43.7568 131.565 43.7373 131.565 43.6982C131.565 43.542 131.6 43.4297 131.668 43.3613C131.893 43.3711 132.134 43.3784 132.393 43.3833C132.657 43.3882 132.938 43.3906 133.235 43.3906Z" fill="white"/>
<path d="M80.8232 62.3906C81.0234 62.3906 81.2944 62.3857 81.6362 62.376C81.9829 62.3662 82.4004 62.3516 82.8887 62.332C83.377 62.3125 83.8066 62.2979 84.1777 62.2881C84.5488 62.2783 84.8613 62.2734 85.1152 62.2734C85.1104 62.3418 85.1055 62.4248 85.1006 62.5225C85.1006 62.6152 85.1006 62.7227 85.1006 62.8447C85.1006 62.9277 85.1006 63.0303 85.1006 63.1523C85.1055 63.2695 85.1104 63.4062 85.1152 63.5625C85.1201 63.7188 85.1226 63.8555 85.1226 63.9727C85.1274 64.0898 85.1299 64.1875 85.1299 64.2656C85.0811 64.3145 84.9932 64.3389 84.8662 64.3389C84.749 64.3389 84.6904 64.3047 84.6904 64.2363C84.6611 63.6895 84.5342 63.3428 84.3096 63.1963C84.085 63.0498 83.7285 62.9766 83.2402 62.9766H82.4492C81.7607 62.9766 81.3896 63.04 81.3359 63.167C81.2285 63.46 81.1406 63.7871 81.0723 64.1484L80.6035 66.7119C80.6035 66.7705 80.6621 66.8047 80.7793 66.8145C80.8965 66.8242 81.0186 66.8291 81.1455 66.8291H81.8047C82.127 66.8291 82.3809 66.8218 82.5664 66.8071C82.752 66.7925 82.8984 66.7534 83.0059 66.6899C83.1133 66.6265 83.2061 66.5239 83.2842 66.3823C83.3672 66.2407 83.4648 66.043 83.5771 65.7891C83.6064 65.7207 83.6748 65.6865 83.7822 65.6865C83.8994 65.6865 83.9727 65.7109 84.002 65.7598L83.46 68.5723C83.3965 68.6113 83.3281 68.6309 83.2549 68.6309C83.123 68.6309 83.0547 68.5918 83.0498 68.5137C83.0449 68.2646 83.0254 68.0669 82.9912 67.9204C82.9717 67.8276 82.9546 67.7617 82.9399 67.7227C82.9253 67.6836 82.8887 67.6396 82.8301 67.5908C82.7373 67.5127 82.2637 67.4736 81.4092 67.4736C80.7695 67.4736 80.4375 67.5176 80.4131 67.6055L79.9883 69.7734C79.8809 70.2812 79.8271 70.7061 79.8271 71.0479C79.8271 71.1943 79.8662 71.2822 79.9443 71.3115C80.0273 71.3408 80.2861 71.3555 80.7207 71.3555H81.3799C82.2344 71.3555 82.8252 71.2725 83.1523 71.1064C83.3086 71.0283 83.4917 70.855 83.7017 70.5864C83.9116 70.3179 84.1094 69.998 84.2949 69.627C84.3242 69.5684 84.3975 69.5391 84.5146 69.5391C84.6855 69.5391 84.7881 69.5684 84.8223 69.627C84.1387 70.9014 83.7383 71.7119 83.6211 72.0586C83.1084 72.0586 82.3052 72.0439 81.2114 72.0146C80.1226 71.9854 79.3828 71.9707 78.9922 71.9707L77.3662 72.0439C77.3564 72.0342 77.3516 71.9951 77.3516 71.9268C77.3516 71.7412 77.376 71.6484 77.4248 71.6484C77.498 71.6484 77.6079 71.6313 77.7544 71.5972C77.9009 71.5581 78.04 71.5117 78.1719 71.458C78.3037 71.3994 78.3818 71.3408 78.4062 71.2822C78.543 71.0039 78.6699 70.5498 78.7871 69.9199L79.8418 64.4707C79.9688 63.7578 80.0225 63.3037 80.0029 63.1084C79.998 63.0547 79.9419 63.001 79.8345 62.9473C79.7271 62.8936 79.6099 62.8496 79.4829 62.8154C79.356 62.7764 79.2559 62.7568 79.1826 62.7568C79.1631 62.7568 79.1533 62.7373 79.1533 62.6982C79.1533 62.542 79.1875 62.4297 79.2559 62.3613C79.4805 62.3711 79.7222 62.3784 79.981 62.3833C80.2446 62.3882 80.5254 62.3906 80.8232 62.3906ZM87.6934 62.4199C87.8545 62.4199 88.0669 62.415 88.3306 62.4053C88.5991 62.3955 88.9189 62.3809 89.29 62.3613V62.4053C89.29 62.6396 89.2559 62.7568 89.1875 62.7568C88.8457 62.7568 88.6138 62.7983 88.4917 62.8813C88.3696 62.9644 88.3086 63.1035 88.3086 63.2988C88.3086 63.416 88.3281 63.5723 88.3672 63.7676L89.4951 69.9053L93.0107 63.8848C93.1279 63.6797 93.1865 63.4453 93.1865 63.1816C93.1865 63.0547 93.1035 62.9521 92.9375 62.874C92.7715 62.7959 92.5908 62.7568 92.3955 62.7568C92.376 62.7568 92.3662 62.7324 92.3662 62.6836C92.3662 62.5225 92.4004 62.415 92.4688 62.3613C92.8203 62.3809 93.1084 62.3955 93.333 62.4053C93.5625 62.415 93.7285 62.4199 93.8311 62.4199C93.9434 62.4199 94.1191 62.415 94.3584 62.4053C94.6025 62.3955 94.9102 62.3809 95.2812 62.3613V62.4492C95.2617 62.6543 95.2227 62.7568 95.1641 62.7568C94.9785 62.7568 94.7686 62.8203 94.5342 62.9473C94.2998 63.0742 94.1094 63.2646 93.9629 63.5186L89.1875 71.7217C89.0068 72.0439 88.8213 72.2051 88.6309 72.2051C88.582 72.2051 88.5381 72.1758 88.499 72.1172L87.0488 63.9287C86.9902 63.5967 86.917 63.3281 86.8291 63.123C86.7803 63.0156 86.6704 62.9277 86.4995 62.8594C86.3286 62.791 86.1895 62.7568 86.082 62.7568C86.0625 62.7568 86.0527 62.7324 86.0527 62.6836C86.0527 62.5225 86.0869 62.415 86.1553 62.3613C86.5557 62.3809 86.8828 62.3955 87.1367 62.4053C87.3955 62.415 87.5811 62.4199 87.6934 62.4199ZM97.4932 62.3906C97.6934 62.3906 97.9644 62.3857 98.3062 62.376C98.6528 62.3662 99.0703 62.3516 99.5586 62.332C100.047 62.3125 100.477 62.2979 100.848 62.2881C101.219 62.2783 101.531 62.2734 101.785 62.2734C101.78 62.3418 101.775 62.4248 101.771 62.5225C101.771 62.6152 101.771 62.7227 101.771 62.8447C101.771 62.9277 101.771 63.0303 101.771 63.1523C101.775 63.2695 101.78 63.4062 101.785 63.5625C101.79 63.7188 101.792 63.8555 101.792 63.9727C101.797 64.0898 101.8 64.1875 101.8 64.2656C101.751 64.3145 101.663 64.3389 101.536 64.3389C101.419 64.3389 101.36 64.3047 101.36 64.2363C101.331 63.6895 101.204 63.3428 100.979 63.1963C100.755 63.0498 100.398 62.9766 99.9102 62.9766H99.1191C98.4307 62.9766 98.0596 63.04 98.0059 63.167C97.8984 63.46 97.8105 63.7871 97.7422 64.1484L97.2734 66.7119C97.2734 66.7705 97.332 66.8047 97.4492 66.8145C97.5664 66.8242 97.6885 66.8291 97.8154 66.8291H98.4746C98.7969 66.8291 99.0508 66.8218 99.2363 66.8071C99.4219 66.7925 99.5684 66.7534 99.6758 66.6899C99.7832 66.6265 99.876 66.5239 99.9541 66.3823C100.037 66.2407 100.135 66.043 100.247 65.7891C100.276 65.7207 100.345 65.6865 100.452 65.6865C100.569 65.6865 100.643 65.7109 100.672 65.7598L100.13 68.5723C100.066 68.6113 99.998 68.6309 99.9248 68.6309C99.793 68.6309 99.7246 68.5918 99.7197 68.5137C99.7148 68.2646 99.6953 68.0669 99.6611 67.9204C99.6416 67.8276 99.6245 67.7617 99.6099 67.7227C99.5952 67.6836 99.5586 67.6396 99.5 67.5908C99.4072 67.5127 98.9336 67.4736 98.0791 67.4736C97.4395 67.4736 97.1074 67.5176 97.083 67.6055L96.6582 69.7734C96.5508 70.2812 96.4971 70.7061 96.4971 71.0479C96.4971 71.1943 96.5361 71.2822 96.6143 71.3115C96.6973 71.3408 96.9561 71.3555 97.3906 71.3555H98.0498C98.9043 71.3555 99.4951 71.2725 99.8223 71.1064C99.9785 71.0283 100.162 70.855 100.372 70.5864C100.582 70.3179 100.779 69.998 100.965 69.627C100.994 69.5684 101.067 69.5391 101.185 69.5391C101.355 69.5391 101.458 69.5684 101.492 69.627C100.809 70.9014 100.408 71.7119 100.291 72.0586C99.7783 72.0586 98.9751 72.0439 97.8813 72.0146C96.7925 71.9854 96.0527 71.9707 95.6621 71.9707L94.0361 72.0439C94.0264 72.0342 94.0215 71.9951 94.0215 71.9268C94.0215 71.7412 94.0459 71.6484 94.0947 71.6484C94.168 71.6484 94.2778 71.6313 94.4243 71.5972C94.5708 71.5581 94.71 71.5117 94.8418 71.458C94.9736 71.3994 95.0518 71.3408 95.0762 71.2822C95.2129 71.0039 95.3398 70.5498 95.457 69.9199L96.5117 64.4707C96.6387 63.7578 96.6924 63.3037 96.6729 63.1084C96.668 63.0547 96.6118 63.001 96.5044 62.9473C96.397 62.8936 96.2798 62.8496 96.1528 62.8154C96.0259 62.7764 95.9258 62.7568 95.8525 62.7568C95.833 62.7568 95.8232 62.7373 95.8232 62.6982C95.8232 62.542 95.8574 62.4297 95.9258 62.3613C96.1504 62.3711 96.3921 62.3784 96.6509 62.3833C96.9146 62.3882 97.1953 62.3906 97.4932 62.3906ZM105.037 62.4199C105.125 62.4199 105.284 62.415 105.513 62.4053C105.743 62.3955 106.043 62.3809 106.414 62.3613C106.487 62.6494 106.617 63.0449 106.802 63.5479C106.993 64.0508 107.22 64.6147 107.483 65.2397C107.747 65.8599 108.028 66.4995 108.326 67.1587C108.628 67.813 108.929 68.4355 109.227 69.0264C109.261 68.9287 109.29 68.8311 109.314 68.7334C109.344 68.6309 109.368 68.5283 109.388 68.4258L110.135 64.4854C110.262 63.8359 110.325 63.3867 110.325 63.1377C110.325 63.0596 110.259 62.9937 110.127 62.9399C110 62.8813 109.854 62.8374 109.688 62.8081C109.527 62.7739 109.397 62.7568 109.3 62.7568C109.28 62.7568 109.271 62.7227 109.271 62.6543C109.271 62.5127 109.305 62.415 109.373 62.3613C109.876 62.3857 110.254 62.4053 110.508 62.4199C110.767 62.4297 110.901 62.4346 110.911 62.4346C110.979 62.4346 111.146 62.4297 111.409 62.4199C111.678 62.4053 112.044 62.3857 112.508 62.3613C112.508 62.625 112.479 62.7568 112.42 62.7568C112.356 62.7568 112.234 62.7739 112.054 62.8081C111.878 62.8423 111.709 62.8838 111.548 62.9326C111.387 62.9814 111.297 63.0303 111.277 63.0791C111.15 63.4062 111.028 63.8604 110.911 64.4414L109.812 70.0078C109.783 70.1592 109.751 70.3325 109.717 70.5278C109.683 70.7231 109.646 70.9404 109.607 71.1797C109.568 71.4189 109.537 71.6118 109.512 71.7583C109.488 71.9048 109.471 72.0049 109.461 72.0586C109.422 72.0977 109.373 72.1172 109.314 72.1172C109.178 72.1172 109.051 72.0049 108.934 71.7803L105.33 63.4893L104.026 69.9346C103.929 70.4229 103.88 70.8574 103.88 71.2383C103.88 71.3164 103.958 71.3896 104.114 71.458C104.271 71.5264 104.427 71.5752 104.583 71.6045L104.832 71.6484C104.852 71.6484 104.861 71.6729 104.861 71.7217C104.861 71.8438 104.837 71.9512 104.788 72.0439C104.339 72.0195 103.987 72.0024 103.733 71.9927C103.479 71.978 103.323 71.9707 103.265 71.9707C103.255 71.9707 103.116 71.978 102.847 71.9927C102.579 72.0024 102.181 72.0195 101.653 72.0439C101.634 72.0244 101.624 71.9854 101.624 71.9268C101.624 71.7412 101.658 71.6484 101.727 71.6484C101.805 71.6484 101.929 71.6313 102.1 71.5972C102.271 71.5581 102.432 71.5117 102.583 71.458C102.74 71.3994 102.83 71.3457 102.854 71.2969C102.967 71.082 103.099 70.6133 103.25 69.8906L104.378 64.4414C104.466 64.0068 104.51 63.5674 104.51 63.123C104.51 63.0449 104.449 62.979 104.327 62.9253C104.205 62.8716 104.065 62.8301 103.909 62.8008C103.753 62.7715 103.621 62.7568 103.514 62.7568C103.494 62.7568 103.484 62.7227 103.484 62.6543C103.484 62.5127 103.519 62.415 103.587 62.3613C103.968 62.3809 104.278 62.3955 104.517 62.4053C104.761 62.415 104.935 62.4199 105.037 62.4199ZM115.159 69.9199L116.17 64.7197C116.297 64.0312 116.36 63.5576 116.36 63.2988C116.36 63.2354 116.348 63.1841 116.324 63.145C116.29 63.1011 116.131 63.0645 115.848 63.0352C115.564 63.0059 115.252 62.9912 114.91 62.9912C114.568 62.9912 114.295 63.0254 114.09 63.0938C113.89 63.1572 113.719 63.2817 113.577 63.4673C113.44 63.6528 113.289 63.9287 113.123 64.2949C113.104 64.3438 113.055 64.3682 112.977 64.3682C112.85 64.3682 112.752 64.334 112.684 64.2656L113.328 62.1709C113.694 62.2783 114.002 62.332 114.251 62.332C114.534 62.332 114.852 62.3394 115.203 62.354C115.555 62.3687 115.906 62.3833 116.258 62.3979C116.614 62.4126 116.932 62.4199 117.21 62.4199C117.498 62.4199 117.82 62.4126 118.177 62.3979C118.538 62.3833 118.897 62.3687 119.253 62.354C119.615 62.3394 119.939 62.332 120.228 62.332C120.447 62.332 120.77 62.2783 121.194 62.1709L121.048 64.2656C120.955 64.334 120.843 64.3682 120.711 64.3682C120.623 64.3682 120.579 64.3438 120.579 64.2949C120.579 63.7676 120.484 63.4185 120.293 63.2476C120.103 63.0767 119.778 62.9912 119.319 62.9912C118.353 62.9912 117.835 63.0645 117.767 63.2109C117.698 63.3574 117.63 63.5527 117.562 63.7969C117.493 64.041 117.425 64.334 117.356 64.6758L116.331 69.9639C116.224 70.4863 116.17 70.9258 116.17 71.2822C116.17 71.3604 116.236 71.4312 116.368 71.4946C116.5 71.5581 116.629 71.5996 116.756 71.6191L116.961 71.6484C116.98 71.6484 116.99 71.668 116.99 71.707C116.99 71.8145 116.961 71.9268 116.902 72.0439C116.453 72.0195 116.102 72.0024 115.848 71.9927C115.594 71.978 115.438 71.9707 115.379 71.9707C115.369 71.9707 115.23 71.978 114.961 71.9927C114.693 72.0024 114.295 72.0195 113.768 72.0439C113.748 72.0244 113.738 71.9854 113.738 71.9268C113.738 71.7412 113.772 71.6484 113.841 71.6484C113.919 71.6484 114.026 71.6338 114.163 71.6045C114.305 71.5752 114.437 71.5361 114.559 71.4873C114.681 71.4385 114.754 71.3848 114.778 71.3262C114.92 71.0039 115.047 70.5352 115.159 69.9199ZM124.988 69.4805C124.988 69.1875 124.871 68.9019 124.637 68.6235C124.402 68.3452 124.119 68.0913 123.787 67.8618C123.621 67.7495 123.455 67.6348 123.289 67.5176C123.123 67.4004 122.955 67.2808 122.784 67.1587C122.447 66.9194 122.161 66.6387 121.927 66.3164C121.692 65.9941 121.575 65.6523 121.575 65.291C121.575 64.7051 121.722 64.1826 122.015 63.7236C122.312 63.2646 122.708 62.9033 123.201 62.6396C123.699 62.376 124.251 62.2441 124.856 62.2441C125.115 62.2441 125.442 62.2979 125.838 62.4053C126.038 62.459 126.214 62.5029 126.365 62.5371C126.517 62.5664 126.644 62.5859 126.746 62.5957C126.712 62.8643 126.678 63.1353 126.644 63.4087C126.614 63.6772 126.585 63.9482 126.556 64.2217C126.526 64.5 126.504 64.666 126.49 64.7197C126.475 64.7686 126.453 64.793 126.424 64.793C126.282 64.793 126.17 64.7637 126.087 64.7051C126.067 64.7002 126.058 64.6416 126.058 64.5293C126.058 64.2217 125.989 63.9434 125.853 63.6943C125.716 63.4453 125.535 63.2476 125.311 63.1011C125.086 62.9497 124.842 62.874 124.578 62.874C124.021 62.874 123.572 63.0425 123.23 63.3794C122.889 63.7163 122.718 64.1387 122.718 64.6465C122.718 65.1641 122.957 65.6133 123.436 65.9941C123.709 66.209 124.029 66.4409 124.395 66.6899C124.766 66.9341 125.088 67.1709 125.362 67.4004C125.562 67.5664 125.76 67.8032 125.955 68.1108C126.15 68.4185 126.248 68.7432 126.248 69.085C126.248 69.3877 126.175 69.71 126.028 70.0518C125.882 70.3936 125.672 70.7183 125.398 71.0259C125.125 71.3335 124.764 71.5874 124.314 71.7876C123.865 71.9878 123.372 72.0879 122.835 72.0879C122.308 72.0879 121.531 71.9707 120.506 71.7363C120.525 71.4238 120.54 71.1699 120.55 70.9746C120.56 70.7744 120.564 70.6328 120.564 70.5498C120.564 70.335 120.56 70.1201 120.55 69.9053C120.54 69.6904 120.535 69.5293 120.535 69.4219C120.535 69.3535 120.628 69.3193 120.813 69.3193C120.906 69.3193 120.999 69.3584 121.092 69.4365C121.092 69.6416 121.114 69.8467 121.158 70.0518C121.202 70.2568 121.285 70.4766 121.407 70.7109C121.529 70.9453 121.724 71.1333 121.993 71.2749C122.261 71.4165 122.586 71.4873 122.967 71.4873C123.313 71.4873 123.641 71.4067 123.948 71.2456C124.256 71.0845 124.505 70.855 124.695 70.5571C124.891 70.2544 124.988 69.8955 124.988 69.4805Z" fill="white"/>
</svg>
