<svg width="422" height="300" viewBox="0 0 422 300" fill="none" xmlns="http://www.w3.org/2000/svg">
<path d="M180.739 143.894C179.17 152.035 176.367 159.861 171.988 166.917C168.078 173.189 162.847 178.84 156.939 183.177C150.736 187.727 143.857 191.069 136.595 193.377C128.856 195.832 120.901 197.121 112.835 197.517C104.212 197.935 95.5332 197.363 87.0134 195.942C78.43 194.513 69.958 192.307 61.8523 189.113C54.6065 186.255 47.6156 182.503 41.3492 177.828C35.6879 173.6 30.369 168.207 26.4197 162.381C22.3111 156.307 19.4925 149.852 17.8283 142.736C16.0448 135.079 15.8059 127.099 16.7136 119.178C17.685 110.59 20.0179 102.069 23.5931 94.1985C27.0965 86.5116 31.7466 79.3598 37.3919 73.0814C42.9895 66.8652 49.4947 61.5089 56.6767 57.2219C63.8429 52.9414 71.6221 49.7596 79.7438 47.7905C88.0565 45.7736 96.6479 45.088 105.184 45.7027C113.958 46.3349 122.637 48.3988 130.783 51.7159C138.546 54.8746 145.855 59.2946 152.273 64.6668C158.691 70.0334 164.304 76.3404 168.843 83.3657C173.373 90.3662 176.845 98.0093 179.106 106.039C181.407 114.247 182.435 122.747 182.148 131.276C181.997 135.511 181.527 139.725 180.739 143.894C180.555 144.883 181.017 145.917 182.052 146.195C182.968 146.451 184.162 145.887 184.346 144.89C186.042 135.965 186.416 126.82 185.269 117.801C184.162 109.001 181.742 100.463 178.055 92.3886C174.456 84.5043 169.647 77.1852 163.882 70.711C158.086 64.1914 151.262 58.5492 143.785 54.0632C136.101 49.4562 127.661 46.0531 118.935 44.0266C110.057 41.9652 100.836 41.2605 91.751 42.056C82.9924 42.8219 74.3692 44.8874 66.2475 48.2571C58.1418 51.6204 50.6094 56.1375 43.8334 61.7239C37.1212 67.2689 31.2529 73.8586 26.4914 81.1545C21.5945 88.6519 17.8921 96.9535 15.5352 105.586C13.2181 114.108 12.0715 123.084 12.5572 131.921C12.9872 139.827 14.7548 147.58 17.9557 154.827C20.9734 161.685 25.3209 167.936 30.5363 173.299C35.9825 178.898 42.3763 183.558 49.208 187.31C56.7245 191.435 64.8143 194.52 73.0873 196.755C81.9335 199.144 91.0663 200.639 100.215 201.18C108.918 201.694 117.693 201.283 126.276 199.759C134.302 198.331 142.161 195.854 149.431 192.175C156.406 188.644 162.823 183.924 168.118 178.165C173.7 172.083 177.968 164.953 180.89 157.245C182.411 153.244 183.541 149.097 184.346 144.89C184.545 143.894 184.075 142.868 183.048 142.583C182.132 142.333 180.93 142.89 180.739 143.894Z" fill="#FF00A2"/>
<path d="M158.264 144.897C158.264 169.196 138.571 188.893 114.268 188.893C89.9638 188.893 70.2637 169.196 70.2637 144.897C70.2637 120.6 89.9638 100.896 114.268 100.896C138.571 100.896 158.264 120.6 158.264 144.897Z" fill="#040606"/>
<path d="M102.377 131.583C102.377 135.481 99.2195 138.646 95.3099 138.646C91.4152 138.646 88.2578 135.481 88.2578 131.583C88.2578 127.685 91.4152 124.52 95.3099 124.52C99.2195 124.52 102.377 127.685 102.377 131.583Z" fill="#FFCFE9"/>
<path d="M144.742 144.9C144.742 151.898 139.07 157.576 132.064 157.576C125.067 157.576 119.387 151.898 119.387 144.9C119.387 137.894 125.067 132.223 132.064 132.223C139.07 132.223 144.742 137.894 144.742 144.9Z" fill="#FFCFE9"/>
<path d="M237.97 144.891C239.594 153.347 242.581 161.583 247.156 168.903C251.385 175.681 256.893 181.536 263.316 186.284C269.702 191.011 276.956 194.499 284.509 196.917C292.538 199.496 300.959 200.837 309.37 201.254C318.333 201.701 327.332 201.042 336.173 199.584C344.958 198.126 353.631 195.854 361.903 192.549C369.502 189.516 376.775 185.676 383.301 180.738C389.444 176.085 394.877 170.581 399.2 164.184C403.419 157.934 406.463 150.87 408.153 143.52C410.01 135.432 410.29 127.034 409.32 118.806C408.227 109.639 405.791 100.714 401.963 92.3085C398.322 84.3002 393.393 76.8745 387.492 70.3403C381.695 63.9107 374.88 58.354 367.439 53.9242C359.998 49.499 351.876 46.1745 343.455 44.1477C334.792 42.0583 325.773 41.3068 316.876 41.9743C307.727 42.6614 298.681 44.7461 290.185 48.2471C281.923 51.6556 274.258 56.2787 267.396 62.0174C260.74 67.5853 254.952 74.1895 250.246 81.4743C245.532 88.7627 241.909 96.8009 239.575 105.161C237.176 113.713 236.112 122.659 236.439 131.533C236.607 136.01 237.129 140.48 237.97 144.891C238.156 145.88 239.351 146.452 240.276 146.195C241.321 145.909 241.769 144.891 241.583 143.895C239.958 135.343 239.697 126.558 240.78 117.926C241.807 109.726 244.15 101.578 247.604 94.0599C251.087 86.4764 255.68 79.4017 261.253 73.1794C266.836 66.9309 273.343 61.5394 280.532 57.2375C287.972 52.7927 296.067 49.5587 304.506 47.6132C313.039 45.647 321.843 45.043 330.562 45.8057C338.937 46.5367 347.199 48.6158 354.966 51.8255C362.584 54.9745 369.773 59.3371 376.112 64.6081C382.544 69.9566 388.174 76.2406 392.73 83.2555C397.416 90.4843 400.955 98.3983 403.205 106.707C405.417 114.899 406.482 123.436 406.015 131.921C405.809 135.754 405.314 139.286 404.418 143.052C403.587 146.525 402.374 150.152 401.011 153.23C398.023 159.891 393.962 165.738 388.911 170.882C383.599 176.283 377.578 180.613 370.921 184.24C363.677 188.175 355.956 191.076 347.993 193.208C339.497 195.487 330.758 196.924 321.983 197.437C313.646 197.928 305.188 197.591 297.038 196.147C289.307 194.769 281.717 192.447 274.781 188.936C268.031 185.515 262.056 181.147 256.931 175.594C251.749 169.973 247.67 163.232 244.962 156.029C243.478 152.087 242.376 148.02 241.583 143.895C241.396 142.898 240.201 142.326 239.277 142.583C238.24 142.869 237.783 143.895 237.97 144.891Z" fill="#FF00A2"/>
<path d="M264.055 144.898C264.055 169.197 283.754 188.893 308.059 188.893C332.355 188.893 352.053 169.197 352.053 144.898C352.053 120.6 332.355 100.896 308.059 100.896C283.754 100.896 264.055 120.6 264.055 144.898Z" fill="#040606"/>
<path d="M319.938 131.585C319.938 135.484 323.103 138.649 326.997 138.649C330.899 138.649 334.065 135.484 334.065 131.585C334.065 127.687 330.899 124.522 326.997 124.522C323.103 124.522 319.938 127.687 319.938 131.585Z" fill="#FFCFE9"/>
<path d="M277.561 144.899C277.561 151.897 283.244 157.576 290.238 157.576C297.24 157.576 302.915 151.897 302.915 144.899C302.915 137.894 297.24 132.223 290.238 132.223C283.244 132.223 277.561 137.894 277.561 144.899Z" fill="#FFCFE9"/>
<path d="M5.25656 45.5759L5.25559 45.5782C-0.64704 59.7327 -1.66047 76.4246 5.68616 89.9985C6.1911 89.1368 6.72952 88.2 7.27939 87.2433C8.46125 85.1869 9.69596 83.0386 10.7646 81.3466C21.3977 64.1085 36.8504 50.0985 54.0625 40.555C71.3837 30.7539 92.2663 24.9679 112.555 22.1066C114.096 21.8529 115.585 21.6449 117.066 21.4379C118.89 21.183 120.703 20.9296 122.589 20.5945C121.542 19.3642 120.424 18.229 119.27 17.0641C101.644 0.98912 77.5992 -2.70152 55.7094 3.04884C33.8127 8.801 14.1327 23.9859 5.25656 45.5759Z" fill="#E40091" stroke="black"/>
<path d="M411.142 81.3481C412.16 82.9655 413.299 84.9514 414.406 86.8807C415.028 87.9644 415.64 89.0302 416.214 90.003C423.564 76.4299 422.55 59.7327 416.644 45.5799L416.643 45.5775C407.765 23.9877 388.087 8.80217 366.192 3.0495C344.303 -2.70138 320.259 0.988876 302.631 17.0647L302.611 17.0846C301.463 18.2436 300.344 19.3726 299.304 20.5952C301.197 20.9309 303.012 21.1844 304.838 21.4395C306.319 21.6464 307.807 21.8543 309.35 22.1079C329.632 24.969 350.515 30.7546 367.834 40.5553C385.056 50.1003 400.495 64.1101 411.142 81.3481ZM411.142 81.3481C411.142 81.3474 411.141 81.3466 411.141 81.3459L410.718 81.6121M411.142 81.3481C411.143 81.3485 411.143 81.349 411.143 81.3494L410.718 81.6121M410.718 81.6121C411.735 83.2282 412.86 85.1909 413.961 87.1089C414.639 88.2906 415.307 89.4553 415.934 90.5115L410.718 81.6121ZM298.375 20.9337C298.494 20.7851 298.615 20.6381 298.736 20.4925L298.935 21.0371C298.749 21.0034 298.562 20.969 298.375 20.9337Z" fill="#E40091" stroke="black"/>
<path d="M96.6147 298.235C112.443 287.112 130.214 278.92 148.89 273.901C167.557 268.895 187.046 267.056 206.319 268.558C217.051 269.393 227.684 271.313 238.034 274.259C240.458 274.948 241.487 271.189 239.08 270.507C220.164 265.115 200.293 263.18 180.688 264.609C160.983 266.045 141.594 270.808 123.474 278.7C113.348 283.11 103.678 288.518 94.6476 294.872C93.7927 295.472 93.3942 296.572 93.9503 297.539C94.4483 298.389 95.7514 298.843 96.6147 298.235Z" fill="#FF00A2"/>
<path d="M75.6876 300C72.9129 289.17 83.5087 276.859 94.6373 278.068C91.8773 282.663 89.147 285.895 85.9283 289.69C82.6282 293.42 79.8313 296.593 75.6876 300Z" fill="#FFCFE9"/>
</svg>
