<svg width="22" height="22" viewBox="0 0 22 22" fill="none" xmlns="http://www.w3.org/2000/svg">
<path fill-rule="evenodd" clip-rule="evenodd" d="M6.89134 0.000467976C5.06864 0.0158622 3.32536 0.748629 2.03904 2.04008C-0.647552 4.72667 -0.686845 9.06724 1.96593 11.7191C4.51088 14.2641 8.60747 14.3244 11.3087 11.9512L12.4345 13.0569C12.2229 13.4098 12.1362 13.8236 12.1884 14.2317C12.2406 14.6398 12.4287 15.0185 12.7223 15.3067L18.0955 20.6799C18.5003 21.0838 19.0066 21.2647 19.4754 21.2373C19.9321 21.2047 20.3612 21.0061 20.6816 20.679C20.9959 20.3646 21.2116 19.9433 21.239 19.4737C21.2664 19.0049 21.0846 18.4977 20.6807 18.0938L15.3066 12.7206C15.1362 12.5457 14.9324 12.4067 14.7073 12.3119C14.4822 12.2171 14.2404 12.1684 13.9962 12.1687C13.6745 12.1687 13.3647 12.2601 13.0897 12.4191L11.9547 11.3033C14.3233 8.60212 14.2621 4.50827 11.719 1.96515C11.0857 1.33264 10.3324 0.833024 9.50342 0.495641C8.6744 0.158257 7.78632 -0.010095 6.89134 0.000467976ZM6.89682 0.906963C7.67125 0.898018 8.43964 1.04402 9.15682 1.33638C9.87399 1.62874 10.5255 2.06156 11.0729 2.60938C13.3565 4.89389 13.3392 8.60943 11.0373 10.9552C11.0073 10.9779 10.9803 11.0043 10.9569 11.0338C10.9556 11.035 10.9544 11.0362 10.9532 11.0374C8.60747 13.3384 4.89468 13.3548 2.61108 11.0712C0.314685 8.77391 0.341185 5.02731 2.68418 2.68431C3.80002 1.56092 5.31352 0.922368 6.89682 0.906963ZM13.9971 13.0825C14.2438 13.0825 14.4814 13.183 14.6532 13.3594H14.655L20.0346 18.739C20.2768 18.9811 20.338 19.2013 20.3252 19.4188C20.3051 19.6517 20.202 19.8697 20.0346 20.0329C19.8721 20.2002 19.6547 20.3034 19.4224 20.3235C19.2049 20.3363 18.9846 20.2751 18.7425 20.0329L13.3629 14.6533H13.3611C13.2743 14.5701 13.205 14.4705 13.157 14.3603C13.109 14.2501 13.0834 14.1315 13.0816 14.0113C13.0798 13.8911 13.1019 13.7717 13.1466 13.6602C13.1913 13.5486 13.2577 13.447 13.3419 13.3612L13.351 13.3502H13.3538C13.5247 13.1808 13.7555 13.0855 13.9962 13.0852L13.9971 13.0825Z" fill="black" fill-opacity="0.44"/>
</svg>
